<mxfile host="app.diagrams.net" agent="Mozilla/5.0 (Windows NT 10.0; Win64; x64) AppleWebKit/537.36 (KHTML, like Gecko) Chrome/136.0.0.0 Safari/537.36 Edg/136.0.0.0" version="26.2.15">
  <diagram id="C5RBs43oDa-KdzZeNtuy" name="Page-1">
    <mxGraphModel dx="1507" dy="725" grid="1" gridSize="10" guides="1" tooltips="1" connect="1" arrows="1" fold="1" page="1" pageScale="1" pageWidth="827" pageHeight="1169" math="0" shadow="0">
      <root>
        <mxCell id="WIyWlLk6GJQsqaUBKTNV-0" />
        <mxCell id="WIyWlLk6GJQsqaUBKTNV-1" parent="WIyWlLk6GJQsqaUBKTNV-0" />
        <mxCell id="YIF75Y-9gsAAsUt0Fy9y-5" value="" style="edgeStyle=orthogonalEdgeStyle;rounded=0;orthogonalLoop=1;jettySize=auto;html=1;" edge="1" parent="WIyWlLk6GJQsqaUBKTNV-1" target="YIF75Y-9gsAAsUt0Fy9y-4">
          <mxGeometry relative="1" as="geometry">
            <mxPoint x="180" y="120" as="sourcePoint" />
          </mxGeometry>
        </mxCell>
        <mxCell id="YIF75Y-9gsAAsUt0Fy9y-9" value="" style="edgeStyle=orthogonalEdgeStyle;rounded=0;orthogonalLoop=1;jettySize=auto;html=1;" edge="1" parent="WIyWlLk6GJQsqaUBKTNV-1" target="YIF75Y-9gsAAsUt0Fy9y-8">
          <mxGeometry relative="1" as="geometry">
            <mxPoint x="180" y="270" as="sourcePoint" />
          </mxGeometry>
        </mxCell>
        <mxCell id="YIF75Y-9gsAAsUt0Fy9y-11" value="" style="edgeStyle=orthogonalEdgeStyle;rounded=0;orthogonalLoop=1;jettySize=auto;html=1;" edge="1" parent="WIyWlLk6GJQsqaUBKTNV-1" target="YIF75Y-9gsAAsUt0Fy9y-10">
          <mxGeometry relative="1" as="geometry">
            <mxPoint x="180" y="430" as="sourcePoint" />
          </mxGeometry>
        </mxCell>
        <mxCell id="YIF75Y-9gsAAsUt0Fy9y-12" value="Yes" style="edgeLabel;html=1;align=center;verticalAlign=middle;resizable=0;points=[];" vertex="1" connectable="0" parent="YIF75Y-9gsAAsUt0Fy9y-11">
          <mxGeometry x="-0.0933" relative="1" as="geometry">
            <mxPoint as="offset" />
          </mxGeometry>
        </mxCell>
        <mxCell id="YIF75Y-9gsAAsUt0Fy9y-31" style="edgeStyle=orthogonalEdgeStyle;rounded=0;orthogonalLoop=1;jettySize=auto;html=1;exitX=1;exitY=0.5;exitDx=0;exitDy=0;entryX=0;entryY=0.5;entryDx=0;entryDy=0;" edge="1" parent="WIyWlLk6GJQsqaUBKTNV-1" target="YIF75Y-9gsAAsUt0Fy9y-29">
          <mxGeometry relative="1" as="geometry">
            <mxPoint x="255" y="385" as="sourcePoint" />
          </mxGeometry>
        </mxCell>
        <mxCell id="YIF75Y-9gsAAsUt0Fy9y-32" value="No" style="edgeLabel;html=1;align=center;verticalAlign=middle;resizable=0;points=[];" vertex="1" connectable="0" parent="YIF75Y-9gsAAsUt0Fy9y-31">
          <mxGeometry x="-0.2475" relative="1" as="geometry">
            <mxPoint as="offset" />
          </mxGeometry>
        </mxCell>
        <mxCell id="YIF75Y-9gsAAsUt0Fy9y-17" value="" style="edgeStyle=orthogonalEdgeStyle;rounded=0;orthogonalLoop=1;jettySize=auto;html=1;" edge="1" parent="WIyWlLk6GJQsqaUBKTNV-1" target="YIF75Y-9gsAAsUt0Fy9y-16">
          <mxGeometry relative="1" as="geometry">
            <mxPoint x="180" y="585" as="sourcePoint" />
          </mxGeometry>
        </mxCell>
        <mxCell id="YIF75Y-9gsAAsUt0Fy9y-19" value="" style="edgeStyle=orthogonalEdgeStyle;rounded=0;orthogonalLoop=1;jettySize=auto;html=1;" edge="1" parent="WIyWlLk6GJQsqaUBKTNV-1" target="YIF75Y-9gsAAsUt0Fy9y-18">
          <mxGeometry relative="1" as="geometry">
            <mxPoint x="140" y="695" as="sourcePoint" />
          </mxGeometry>
        </mxCell>
        <mxCell id="YIF75Y-9gsAAsUt0Fy9y-22" value="No" style="edgeLabel;html=1;align=center;verticalAlign=middle;resizable=0;points=[];" vertex="1" connectable="0" parent="YIF75Y-9gsAAsUt0Fy9y-19">
          <mxGeometry x="-0.1563" y="2" relative="1" as="geometry">
            <mxPoint as="offset" />
          </mxGeometry>
        </mxCell>
        <mxCell id="YIF75Y-9gsAAsUt0Fy9y-24" value="" style="edgeStyle=orthogonalEdgeStyle;rounded=0;orthogonalLoop=1;jettySize=auto;html=1;" edge="1" parent="WIyWlLk6GJQsqaUBKTNV-1" target="YIF75Y-9gsAAsUt0Fy9y-23">
          <mxGeometry relative="1" as="geometry">
            <mxPoint x="180" y="735" as="sourcePoint" />
          </mxGeometry>
        </mxCell>
        <mxCell id="YIF75Y-9gsAAsUt0Fy9y-27" value="Yes" style="edgeLabel;html=1;align=center;verticalAlign=middle;resizable=0;points=[];" vertex="1" connectable="0" parent="YIF75Y-9gsAAsUt0Fy9y-24">
          <mxGeometry x="-0.1908" relative="1" as="geometry">
            <mxPoint as="offset" />
          </mxGeometry>
        </mxCell>
        <mxCell id="YIF75Y-9gsAAsUt0Fy9y-26" value="" style="edgeStyle=orthogonalEdgeStyle;rounded=0;orthogonalLoop=1;jettySize=auto;html=1;" edge="1" parent="WIyWlLk6GJQsqaUBKTNV-1" target="YIF75Y-9gsAAsUt0Fy9y-25">
          <mxGeometry relative="1" as="geometry">
            <mxPoint x="180" y="885" as="sourcePoint" />
          </mxGeometry>
        </mxCell>
        <mxCell id="YIF75Y-9gsAAsUt0Fy9y-30" style="edgeStyle=orthogonalEdgeStyle;rounded=0;orthogonalLoop=1;jettySize=auto;html=1;exitX=0.5;exitY=0;exitDx=0;exitDy=0;entryX=1;entryY=0.5;entryDx=0;entryDy=0;" edge="1" parent="WIyWlLk6GJQsqaUBKTNV-1" source="YIF75Y-9gsAAsUt0Fy9y-29">
          <mxGeometry relative="1" as="geometry">
            <mxPoint x="240" y="240" as="targetPoint" />
          </mxGeometry>
        </mxCell>
        <mxCell id="YIF75Y-9gsAAsUt0Fy9y-36" value="" style="edgeStyle=orthogonalEdgeStyle;rounded=0;orthogonalLoop=1;jettySize=auto;html=1;" edge="1" parent="WIyWlLk6GJQsqaUBKTNV-1" source="YIF75Y-9gsAAsUt0Fy9y-33" target="YIF75Y-9gsAAsUt0Fy9y-35">
          <mxGeometry relative="1" as="geometry" />
        </mxCell>
        <mxCell id="YIF75Y-9gsAAsUt0Fy9y-33" value="start" style="ellipse;whiteSpace=wrap;html=1;" vertex="1" parent="WIyWlLk6GJQsqaUBKTNV-1">
          <mxGeometry x="500" y="40" width="120" height="80" as="geometry" />
        </mxCell>
        <mxCell id="YIF75Y-9gsAAsUt0Fy9y-38" value="" style="edgeStyle=orthogonalEdgeStyle;rounded=0;orthogonalLoop=1;jettySize=auto;html=1;" edge="1" parent="WIyWlLk6GJQsqaUBKTNV-1" source="YIF75Y-9gsAAsUt0Fy9y-35" target="YIF75Y-9gsAAsUt0Fy9y-37">
          <mxGeometry relative="1" as="geometry" />
        </mxCell>
        <mxCell id="YIF75Y-9gsAAsUt0Fy9y-35" value="App" style="whiteSpace=wrap;html=1;" vertex="1" parent="WIyWlLk6GJQsqaUBKTNV-1">
          <mxGeometry x="500" y="180" width="120" height="60" as="geometry" />
        </mxCell>
        <mxCell id="YIF75Y-9gsAAsUt0Fy9y-41" value="" style="edgeStyle=orthogonalEdgeStyle;rounded=0;orthogonalLoop=1;jettySize=auto;html=1;" edge="1" parent="WIyWlLk6GJQsqaUBKTNV-1" source="YIF75Y-9gsAAsUt0Fy9y-37" target="YIF75Y-9gsAAsUt0Fy9y-40">
          <mxGeometry relative="1" as="geometry" />
        </mxCell>
        <mxCell id="YIF75Y-9gsAAsUt0Fy9y-42" value="No" style="edgeLabel;html=1;align=center;verticalAlign=middle;resizable=0;points=[];" vertex="1" connectable="0" parent="YIF75Y-9gsAAsUt0Fy9y-41">
          <mxGeometry x="-0.1028" y="2" relative="1" as="geometry">
            <mxPoint as="offset" />
          </mxGeometry>
        </mxCell>
        <mxCell id="YIF75Y-9gsAAsUt0Fy9y-46" value="" style="edgeStyle=orthogonalEdgeStyle;rounded=0;orthogonalLoop=1;jettySize=auto;html=1;" edge="1" parent="WIyWlLk6GJQsqaUBKTNV-1" source="YIF75Y-9gsAAsUt0Fy9y-37" target="YIF75Y-9gsAAsUt0Fy9y-45">
          <mxGeometry relative="1" as="geometry" />
        </mxCell>
        <mxCell id="YIF75Y-9gsAAsUt0Fy9y-47" value="Yes" style="edgeLabel;html=1;align=center;verticalAlign=middle;resizable=0;points=[];" vertex="1" connectable="0" parent="YIF75Y-9gsAAsUt0Fy9y-46">
          <mxGeometry x="-0.0939" relative="1" as="geometry">
            <mxPoint as="offset" />
          </mxGeometry>
        </mxCell>
        <mxCell id="YIF75Y-9gsAAsUt0Fy9y-37" value="token available in&lt;br&gt;&amp;nbsp;localStorage?" style="rhombus;whiteSpace=wrap;html=1;" vertex="1" parent="WIyWlLk6GJQsqaUBKTNV-1">
          <mxGeometry x="490" y="320" width="140" height="100" as="geometry" />
        </mxCell>
        <mxCell id="YIF75Y-9gsAAsUt0Fy9y-44" value="" style="edgeStyle=orthogonalEdgeStyle;rounded=0;orthogonalLoop=1;jettySize=auto;html=1;exitX=0.5;exitY=1;exitDx=0;exitDy=0;" edge="1" parent="WIyWlLk6GJQsqaUBKTNV-1" source="YIF75Y-9gsAAsUt0Fy9y-40" target="YIF75Y-9gsAAsUt0Fy9y-43">
          <mxGeometry relative="1" as="geometry" />
        </mxCell>
        <mxCell id="YIF75Y-9gsAAsUt0Fy9y-40" value="setUser(default)" style="whiteSpace=wrap;html=1;" vertex="1" parent="WIyWlLk6GJQsqaUBKTNV-1">
          <mxGeometry x="500" y="500" width="120" height="60" as="geometry" />
        </mxCell>
        <mxCell id="YIF75Y-9gsAAsUt0Fy9y-78" style="edgeStyle=orthogonalEdgeStyle;rounded=0;orthogonalLoop=1;jettySize=auto;html=1;exitX=0.5;exitY=1;exitDx=0;exitDy=0;entryX=0.5;entryY=0;entryDx=0;entryDy=0;" edge="1" parent="WIyWlLk6GJQsqaUBKTNV-1" source="YIF75Y-9gsAAsUt0Fy9y-43" target="YIF75Y-9gsAAsUt0Fy9y-77">
          <mxGeometry relative="1" as="geometry" />
        </mxCell>
        <mxCell id="YIF75Y-9gsAAsUt0Fy9y-43" value="LoginPage" style="whiteSpace=wrap;html=1;" vertex="1" parent="WIyWlLk6GJQsqaUBKTNV-1">
          <mxGeometry x="500" y="680" width="120" height="60" as="geometry" />
        </mxCell>
        <mxCell id="YIF75Y-9gsAAsUt0Fy9y-66" value="" style="edgeStyle=orthogonalEdgeStyle;rounded=0;orthogonalLoop=1;jettySize=auto;html=1;" edge="1" parent="WIyWlLk6GJQsqaUBKTNV-1" source="YIF75Y-9gsAAsUt0Fy9y-45" target="YIF75Y-9gsAAsUt0Fy9y-65">
          <mxGeometry relative="1" as="geometry" />
        </mxCell>
        <mxCell id="YIF75Y-9gsAAsUt0Fy9y-45" value="getCurrentUser()&lt;br&gt;GET /api/auth/me" style="whiteSpace=wrap;html=1;" vertex="1" parent="WIyWlLk6GJQsqaUBKTNV-1">
          <mxGeometry x="807" y="340" width="120" height="60" as="geometry" />
        </mxCell>
        <mxCell id="YIF75Y-9gsAAsUt0Fy9y-68" value="" style="edgeStyle=orthogonalEdgeStyle;rounded=0;orthogonalLoop=1;jettySize=auto;html=1;" edge="1" parent="WIyWlLk6GJQsqaUBKTNV-1" source="YIF75Y-9gsAAsUt0Fy9y-65" target="YIF75Y-9gsAAsUt0Fy9y-67">
          <mxGeometry relative="1" as="geometry" />
        </mxCell>
        <mxCell id="YIF75Y-9gsAAsUt0Fy9y-72" value="No" style="edgeLabel;html=1;align=center;verticalAlign=middle;resizable=0;points=[];" vertex="1" connectable="0" parent="YIF75Y-9gsAAsUt0Fy9y-68">
          <mxGeometry x="-0.0103" y="-2" relative="1" as="geometry">
            <mxPoint as="offset" />
          </mxGeometry>
        </mxCell>
        <mxCell id="YIF75Y-9gsAAsUt0Fy9y-71" value="" style="edgeStyle=orthogonalEdgeStyle;rounded=0;orthogonalLoop=1;jettySize=auto;html=1;" edge="1" parent="WIyWlLk6GJQsqaUBKTNV-1" source="YIF75Y-9gsAAsUt0Fy9y-65" target="YIF75Y-9gsAAsUt0Fy9y-70">
          <mxGeometry relative="1" as="geometry" />
        </mxCell>
        <mxCell id="YIF75Y-9gsAAsUt0Fy9y-73" value="Yes" style="edgeLabel;html=1;align=center;verticalAlign=middle;resizable=0;points=[];" vertex="1" connectable="0" parent="YIF75Y-9gsAAsUt0Fy9y-71">
          <mxGeometry x="-0.281" relative="1" as="geometry">
            <mxPoint as="offset" />
          </mxGeometry>
        </mxCell>
        <mxCell id="YIF75Y-9gsAAsUt0Fy9y-65" value="success?" style="rhombus;whiteSpace=wrap;html=1;" vertex="1" parent="WIyWlLk6GJQsqaUBKTNV-1">
          <mxGeometry x="827" y="570" width="80" height="80" as="geometry" />
        </mxCell>
        <mxCell id="YIF75Y-9gsAAsUt0Fy9y-69" style="edgeStyle=orthogonalEdgeStyle;rounded=0;orthogonalLoop=1;jettySize=auto;html=1;entryX=0.5;entryY=0;entryDx=0;entryDy=0;" edge="1" parent="WIyWlLk6GJQsqaUBKTNV-1" source="YIF75Y-9gsAAsUt0Fy9y-67" target="YIF75Y-9gsAAsUt0Fy9y-43">
          <mxGeometry relative="1" as="geometry" />
        </mxCell>
        <mxCell id="YIF75Y-9gsAAsUt0Fy9y-67" value="remove token&lt;br&gt;in localStorage" style="whiteSpace=wrap;html=1;" vertex="1" parent="WIyWlLk6GJQsqaUBKTNV-1">
          <mxGeometry x="640" y="580" width="120" height="60" as="geometry" />
        </mxCell>
        <mxCell id="YIF75Y-9gsAAsUt0Fy9y-75" value="" style="edgeStyle=orthogonalEdgeStyle;rounded=0;orthogonalLoop=1;jettySize=auto;html=1;" edge="1" parent="WIyWlLk6GJQsqaUBKTNV-1" source="YIF75Y-9gsAAsUt0Fy9y-70" target="YIF75Y-9gsAAsUt0Fy9y-74">
          <mxGeometry relative="1" as="geometry" />
        </mxCell>
        <mxCell id="YIF75Y-9gsAAsUt0Fy9y-70" value="save user in UserContext" style="whiteSpace=wrap;html=1;" vertex="1" parent="WIyWlLk6GJQsqaUBKTNV-1">
          <mxGeometry x="807" y="890" width="120" height="60" as="geometry" />
        </mxCell>
        <mxCell id="YIF75Y-9gsAAsUt0Fy9y-74" value="HomePage" style="whiteSpace=wrap;html=1;" vertex="1" parent="WIyWlLk6GJQsqaUBKTNV-1">
          <mxGeometry x="500" y="890" width="120" height="60" as="geometry" />
        </mxCell>
        <mxCell id="YIF75Y-9gsAAsUt0Fy9y-79" style="edgeStyle=orthogonalEdgeStyle;rounded=0;orthogonalLoop=1;jettySize=auto;html=1;exitX=0.5;exitY=1;exitDx=0;exitDy=0;" edge="1" parent="WIyWlLk6GJQsqaUBKTNV-1" source="YIF75Y-9gsAAsUt0Fy9y-77" target="YIF75Y-9gsAAsUt0Fy9y-74">
          <mxGeometry relative="1" as="geometry" />
        </mxCell>
        <mxCell id="YIF75Y-9gsAAsUt0Fy9y-77" value="Login" style="rounded=0;whiteSpace=wrap;html=1;" vertex="1" parent="WIyWlLk6GJQsqaUBKTNV-1">
          <mxGeometry x="500" y="790" width="120" height="60" as="geometry" />
        </mxCell>
      </root>
    </mxGraphModel>
  </diagram>
</mxfile>
